<svg width="38" height="38" viewBox="0 0 38 38" fill="none" xmlns="http://www.w3.org/2000/svg">
<path d="M8.92367 29.0763C11.255 31.4077 14.3227 32.8586 17.604 33.1816C20.8852 33.5046 24.1769 32.6798 26.9181 30.8477C29.6593 29.0157 31.6805 26.2898 32.6371 23.1345C33.5936 19.9792 33.4265 16.5899 32.1641 13.544C30.9017 10.4982 28.6222 7.98437 25.714 6.43092C22.8058 4.87747 19.4489 4.38055 16.2154 5.02483C12.9819 5.66911 10.0718 7.41473 7.98116 9.9642C5.89048 12.5137 4.74856 15.7092 4.75 19.0063V22.1667" stroke="white" stroke-width="2.5" stroke-linecap="round" stroke-linejoin="round"/>
<path d="M1.58331 19L4.74998 22.1667L7.91665 19M17.4166 12.6667V20.5833H25.3333" stroke="white" stroke-width="2.5" stroke-linecap="round" stroke-linejoin="round"/>
</svg>
