<svg width="52" height="52" viewBox="0 0 52 52" fill="none" xmlns="http://www.w3.org/2000/svg">
<path d="M8.66669 41.1667V21.6667C8.66669 20.9806 8.82052 20.3306 9.12819 19.7167C9.43585 19.1028 9.8598 18.5972 10.4 18.2L23.4 8.45C24.1584 7.87222 25.025 7.58334 26 7.58334C26.975 7.58334 27.8417 7.87222 28.6 8.45L41.6 18.2C42.1417 18.5972 42.5664 19.1028 42.874 19.7167C43.1817 20.3306 43.3348 20.9806 43.3334 21.6667V41.1667C43.3334 42.3583 42.9087 43.3788 42.0594 44.2282C41.21 45.0775 40.1902 45.5014 39 45.5H32.5C31.8861 45.5 31.3719 45.292 30.9574 44.876C30.5428 44.46 30.3348 43.9458 30.3334 43.3333V32.5C30.3334 31.8861 30.1254 31.3719 29.7094 30.9573C29.2934 30.5428 28.7791 30.3348 28.1667 30.3333H23.8334C23.2195 30.3333 22.7052 30.5413 22.2907 30.9573C21.8761 31.3733 21.6681 31.8876 21.6667 32.5V43.3333C21.6667 43.9472 21.4587 44.4622 21.0427 44.8782C20.6267 45.2942 20.1125 45.5014 19.5 45.5H13C11.8084 45.5 10.7886 45.0761 9.94069 44.2282C9.0928 43.3803 8.66813 42.3598 8.66669 41.1667Z" fill="white"/>
</svg>
