<svg width="36" height="36" viewBox="0 0 36 36" fill="none" xmlns="http://www.w3.org/2000/svg">
<path d="M16.2375 33C15.5625 33 14.9815 32.775 14.4945 32.325C14.0075 31.875 13.7135 31.325 13.6125 30.675L13.275 28.2C12.95 28.075 12.644 27.925 12.357 27.75C12.07 27.575 11.7885 27.3875 11.5125 27.1875L9.18747 28.1625C8.56247 28.4375 7.93747 28.4625 7.31247 28.2375C6.68747 28.0125 6.19997 27.6125 5.84997 27.0375L4.08747 23.9625C3.73747 23.3875 3.63747 22.775 3.78747 22.125C3.93747 21.475 4.27497 20.9375 4.79997 20.5125L6.78747 19.0125C6.76247 18.8375 6.74997 18.6685 6.74997 18.5055V17.493C6.74997 17.331 6.76247 17.1625 6.78747 16.9875L4.79997 15.4875C4.27497 15.0625 3.93747 14.525 3.78747 13.875C3.63747 13.225 3.73747 12.6125 4.08747 12.0375L5.84997 8.9625C6.19997 8.3875 6.68747 7.9875 7.31247 7.7625C7.93747 7.5375 8.56247 7.5625 9.18747 7.8375L11.5125 8.8125C11.7875 8.6125 12.075 8.425 12.375 8.25C12.675 8.075 12.975 7.925 13.275 7.8L13.6125 5.325C13.7125 4.675 14.0065 4.125 14.4945 3.675C14.9825 3.225 15.5635 3 16.2375 3H19.7625C20.4375 3 21.019 3.225 21.507 3.675C21.995 4.125 22.2885 4.675 22.3875 5.325L22.725 7.8C23.05 7.925 23.3565 8.075 23.6445 8.25C23.9325 8.425 24.2135 8.6125 24.4875 8.8125L26.8125 7.8375C27.4375 7.5625 28.0625 7.5375 28.6875 7.7625C29.3125 7.9875 29.8 8.3875 30.15 8.9625L31.9125 12.0375C32.2625 12.6125 32.3625 13.225 32.2125 13.875C32.0625 14.525 31.725 15.0625 31.2 15.4875L29.2125 16.9875C29.2375 17.1625 29.25 17.3315 29.25 17.4945V18.5055C29.25 18.6685 29.225 18.8375 29.175 19.0125L31.1625 20.5125C31.6875 20.9375 32.025 21.475 32.175 22.125C32.325 22.775 32.225 23.3875 31.875 23.9625L30.075 27.0375C29.725 27.6125 29.2375 28.0125 28.6125 28.2375C27.9875 28.4625 27.3625 28.4375 26.7375 28.1625L24.4875 27.1875C24.2125 27.3875 23.925 27.575 23.625 27.75C23.325 27.925 23.025 28.075 22.725 28.2L22.3875 30.675C22.2875 31.325 21.994 31.875 21.507 32.325C21.02 32.775 20.4385 33 19.7625 33H16.2375ZM18.075 23.25C19.525 23.25 20.7625 22.7375 21.7875 21.7125C22.8125 20.6875 23.325 19.45 23.325 18C23.325 16.55 22.8125 15.3125 21.7875 14.2875C20.7625 13.2625 19.525 12.75 18.075 12.75C16.6 12.75 15.356 13.2625 14.343 14.2875C13.33 15.3125 12.824 16.55 12.825 18C12.826 19.45 13.3325 20.6875 14.3445 21.7125C15.3565 22.7375 16.6 23.25 18.075 23.25Z" fill="white"/>
</svg>
