<svg width="31" height="31" viewBox="0 0 31 31" fill="none" xmlns="http://www.w3.org/2000/svg">
<path fill-rule="evenodd" clip-rule="evenodd" d="M15.33 17.5089L22.0653 23.9706C22.4227 24.3134 22.9074 24.5061 23.4129 24.5061C23.9183 24.5061 24.403 24.3134 24.7604 23.9706C25.1178 23.6277 25.3186 23.1626 25.3186 22.6777C25.3186 22.1928 25.1178 21.7278 24.7604 21.3849L18.0226 14.9232L24.7592 8.46155C24.936 8.29177 25.0763 8.09024 25.172 7.86844C25.2677 7.64665 25.3169 7.40895 25.3169 7.16891C25.3168 6.92886 25.2675 6.69118 25.1717 6.46943C25.0759 6.24768 24.9355 6.04621 24.7585 5.87651C24.5816 5.70682 24.3715 5.57222 24.1403 5.48041C23.9091 5.38861 23.6613 5.34138 23.4111 5.34144C23.1609 5.3415 22.9132 5.38883 22.682 5.48074C22.4509 5.57266 22.2409 5.70735 22.064 5.87712L15.33 12.3388L8.5947 5.87712C8.41904 5.70248 8.20889 5.56314 7.9765 5.46725C7.74411 5.37135 7.49415 5.32082 7.24119 5.3186C6.98823 5.31638 6.73734 5.36251 6.50316 5.4543C6.26898 5.5461 6.0562 5.68172 5.87724 5.85325C5.69828 6.02478 5.55672 6.22878 5.46081 6.45336C5.36491 6.67794 5.31659 6.91859 5.31867 7.16128C5.32075 7.40397 5.37318 7.64382 5.47292 7.86686C5.57265 8.0899 5.71769 8.29165 5.89956 8.46033L12.6374 14.9232L5.90084 21.3861C5.71896 21.5548 5.57392 21.7566 5.47419 21.9796C5.37445 22.2026 5.32202 22.4425 5.31994 22.6852C5.31786 22.9279 5.36618 23.1685 5.46208 23.3931C5.55799 23.6177 5.69955 23.8217 5.87851 23.9932C6.05747 24.1647 6.27025 24.3004 6.50443 24.3922C6.73861 24.4839 6.9895 24.5301 7.24246 24.5279C7.49542 24.5256 7.74538 24.4751 7.97777 24.3792C8.21016 24.2833 8.42031 24.144 8.59597 23.9693L15.33 17.5089Z" fill="#F2F2F4"/>
</svg>
