<svg width="26" height="26" viewBox="0 0 26 26" fill="none" xmlns="http://www.w3.org/2000/svg">
<path d="M4.33325 8.66667V6.5C4.33325 5.92536 4.56153 5.37426 4.96785 4.96794C5.37418 4.56161 5.92528 4.33333 6.49992 4.33333H8.66659M4.33325 17.3333V19.5C4.33325 20.0746 4.56153 20.6257 4.96785 21.0321C5.37418 21.4384 5.92528 21.6667 6.49992 21.6667H8.66659M17.3333 4.33333H19.4999C20.0746 4.33333 20.6257 4.56161 21.032 4.96794C21.4383 5.37426 21.6666 5.92536 21.6666 6.5V8.66667M17.3333 21.6667H19.4999C20.0746 21.6667 20.6257 21.4384 21.032 21.0321C21.4383 20.6257 21.6666 20.0746 21.6666 19.5V17.3333" stroke="#F2F2F4" stroke-width="2" stroke-linecap="round" stroke-linejoin="round"/>
</svg>
