<svg width="16" height="16" viewBox="0 0 16 16" fill="none" xmlns="http://www.w3.org/2000/svg">
<path d="M14.4031 1.5H4.8526C4.7743 1.49981 4.69673 1.51507 4.62433 1.54491C4.55194 1.57476 4.48614 1.6186 4.43073 1.67392C4.37531 1.72924 4.33136 1.79496 4.30139 1.86731C4.27143 1.93965 4.25604 2.0172 4.2561 2.0955V4.75L9.7906 6.375L15.0001 4.75V2.0955C15.0002 2.01716 14.9848 1.93957 14.9548 1.86719C14.9248 1.79481 14.8808 1.72907 14.8253 1.67374C14.7698 1.61841 14.704 1.57458 14.6315 1.54477C14.5591 1.51495 14.4815 1.49974 14.4031 1.5Z" fill="#41A5EE"/>
<path d="M15.0001 4.75H4.2561V8L9.7906 8.975L15.0001 8V4.75Z" fill="#2B7CD3"/>
<path d="M4.2561 8V11.25L9.4651 11.9L15.0001 11.25V8H4.2561Z" fill="#185ABD"/>
<path d="M4.8526 14.5H14.4026C14.481 14.5003 14.5587 14.4852 14.6312 14.4554C14.7037 14.4256 14.7696 14.3818 14.8251 14.3264C14.8806 14.2711 14.9247 14.2053 14.9547 14.1329C14.9847 14.0605 15.0002 13.9829 15.0001 13.9045V11.25H4.2561V13.9045C4.25604 13.9828 4.27143 14.0604 4.30139 14.1327C4.33136 14.205 4.37531 14.2708 4.43073 14.3261C4.48614 14.3814 4.55194 14.4252 4.62433 14.4551C4.69673 14.4849 4.7743 14.5002 4.8526 14.5Z" fill="#103F91"/>
<path opacity="0.1" d="M8.2171 4.1H4.2561V12.225H8.2171C8.37494 12.2242 8.5261 12.1613 8.63785 12.0498C8.7496 11.9383 8.81292 11.7873 8.8141 11.6295V4.6955C8.81292 4.53767 8.7496 4.38666 8.63785 4.27519C8.5261 4.16373 8.37494 4.10078 8.2171 4.1Z" fill="black"/>
<path opacity="0.2" d="M7.8916 4.425H4.2561V12.55H7.8916C8.04944 12.5492 8.2006 12.4863 8.31235 12.3748C8.4241 12.2633 8.48742 12.1123 8.4886 11.9545V5.0205C8.48742 4.86267 8.4241 4.71166 8.31235 4.6002C8.2006 4.48873 8.04944 4.42579 7.8916 4.425Z" fill="black"/>
<path opacity="0.2" d="M7.8916 4.425H4.2561V11.9H7.8916C8.04944 11.8992 8.2006 11.8363 8.31235 11.7248C8.4241 11.6133 8.48742 11.4623 8.4886 11.3045V5.0205C8.48742 4.86267 8.4241 4.71166 8.31235 4.6002C8.2006 4.48873 8.04944 4.42579 7.8916 4.425Z" fill="black"/>
<path opacity="0.2" d="M7.5661 4.425H4.2561V11.9H7.5661C7.72394 11.8992 7.8751 11.8363 7.98685 11.7248C8.0986 11.6133 8.16192 11.4623 8.1631 11.3045V5.0205C8.16192 4.86267 8.0986 4.71166 7.98685 4.6002C7.8751 4.48873 7.72394 4.42579 7.5661 4.425Z" fill="black"/>
<path d="M1.597 4.425H7.566C7.72412 4.42487 7.87581 4.48752 7.98776 4.59918C8.0997 4.71084 8.16274 4.86238 8.163 5.0205V10.9795C8.16274 11.1376 8.0997 11.2892 7.98776 11.4008C7.87581 11.5125 7.72412 11.5751 7.566 11.575H1.597C1.51865 11.5753 1.44103 11.56 1.36857 11.5302C1.29612 11.5004 1.23027 11.4566 1.1748 11.4013C1.11933 11.3459 1.07534 11.2802 1.04534 11.2078C1.01534 11.1354 0.999934 11.0578 1 10.9795V5.0205C0.999934 4.94215 1.01534 4.86456 1.04534 4.79219C1.07534 4.71981 1.11933 4.65407 1.1748 4.59874C1.23027 4.54341 1.29612 4.49958 1.36857 4.46976C1.44103 4.43995 1.51865 4.42474 1.597 4.425Z" fill="url(#paint0_linear_10_47)"/>
<path d="M3.44997 8.994C3.46164 9.086 3.4693 9.16616 3.47297 9.2345H3.48697C3.49197 9.1695 3.5028 9.09116 3.51947 8.9995C3.54447 8.862 3.55047 8.8305 3.56397 8.767L4.19147 6.0635H5.00347L5.65347 8.7265C5.69101 8.89129 5.71806 9.05829 5.73447 9.2265H5.74547C5.75794 9.06277 5.78049 8.89996 5.81297 8.739L6.33247 6.06H7.07097L6.15897 9.934H5.29547L4.67697 7.371C4.65897 7.297 4.63864 7.20066 4.61597 7.082C4.5933 6.96333 4.5793 6.87666 4.57397 6.822H4.56347C4.55647 6.885 4.54247 6.9785 4.52147 7.1025C4.50047 7.2265 4.4838 7.3185 4.47147 7.3785L3.88997 9.9355H3.01197L2.09497 6.0635H2.84497L3.41047 8.7725C3.42695 8.8457 3.44013 8.91961 3.44997 8.994Z" fill="white"/>
<defs>
<linearGradient id="paint0_linear_10_47" x1="2.247" y1="3.957" x2="6.916" y2="12.043" gradientUnits="userSpaceOnUse">
<stop stop-color="#2368C4"/>
<stop offset="0.5" stop-color="#1A5DBE"/>
<stop offset="1" stop-color="#1146AC"/>
</linearGradient>
</defs>
</svg>
